<svg id="visual" viewBox="0 0 900 600" width="900" height="600" xmlns="http://www.w3.org/2000/svg" xmlns:xlink="http://www.w3.org/1999/xlink" version="1.1"><rect x="0" y="0" width="900" height="600" fill="#001220"></rect><defs><linearGradient id="grad1_0" x1="33.3%" y1="100%" x2="100%" y2="0%"><stop offset="20%" stop-color="#fbae3c" stop-opacity="1"></stop><stop offset="80%" stop-color="#fbae3c" stop-opacity="1"></stop></linearGradient></defs><defs><linearGradient id="grad1_1" x1="33.3%" y1="100%" x2="100%" y2="0%"><stop offset="20%" stop-color="#fbae3c" stop-opacity="1"></stop><stop offset="80%" stop-color="#f48350" stop-opacity="1"></stop></linearGradient></defs><defs><linearGradient id="grad1_2" x1="33.3%" y1="100%" x2="100%" y2="0%"><stop offset="20%" stop-color="#d96162" stop-opacity="1"></stop><stop offset="80%" stop-color="#f48350" stop-opacity="1"></stop></linearGradient></defs><defs><linearGradient id="grad1_3" x1="33.3%" y1="100%" x2="100%" y2="0%"><stop offset="20%" stop-color="#d96162" stop-opacity="1"></stop><stop offset="80%" stop-color="#af4b6d" stop-opacity="1"></stop></linearGradient></defs><defs><linearGradient id="grad1_4" x1="33.3%" y1="100%" x2="100%" y2="0%"><stop offset="20%" stop-color="#7c3e6b" stop-opacity="1"></stop><stop offset="80%" stop-color="#af4b6d" stop-opacity="1"></stop></linearGradient></defs><defs><linearGradient id="grad1_5" x1="33.3%" y1="100%" x2="100%" y2="0%"><stop offset="20%" stop-color="#7c3e6b" stop-opacity="1"></stop><stop offset="80%" stop-color="#49335c" stop-opacity="1"></stop></linearGradient></defs><defs><linearGradient id="grad1_6" x1="33.3%" y1="100%" x2="100%" y2="0%"><stop offset="20%" stop-color="#1d2540" stop-opacity="1"></stop><stop offset="80%" stop-color="#49335c" stop-opacity="1"></stop></linearGradient></defs><defs><linearGradient id="grad1_7" x1="33.3%" y1="100%" x2="100%" y2="0%"><stop offset="20%" stop-color="#1d2540" stop-opacity="1"></stop><stop offset="80%" stop-color="#001220" stop-opacity="1"></stop></linearGradient></defs><defs><linearGradient id="grad2_0" x1="0%" y1="100%" x2="66.7%" y2="0%"><stop offset="20%" stop-color="#fbae3c" stop-opacity="1"></stop><stop offset="80%" stop-color="#fbae3c" stop-opacity="1"></stop></linearGradient></defs><defs><linearGradient id="grad2_1" x1="0%" y1="100%" x2="66.7%" y2="0%"><stop offset="20%" stop-color="#f48350" stop-opacity="1"></stop><stop offset="80%" stop-color="#fbae3c" stop-opacity="1"></stop></linearGradient></defs><defs><linearGradient id="grad2_2" x1="0%" y1="100%" x2="66.7%" y2="0%"><stop offset="20%" stop-color="#f48350" stop-opacity="1"></stop><stop offset="80%" stop-color="#d96162" stop-opacity="1"></stop></linearGradient></defs><defs><linearGradient id="grad2_3" x1="0%" y1="100%" x2="66.7%" y2="0%"><stop offset="20%" stop-color="#af4b6d" stop-opacity="1"></stop><stop offset="80%" stop-color="#d96162" stop-opacity="1"></stop></linearGradient></defs><defs><linearGradient id="grad2_4" x1="0%" y1="100%" x2="66.7%" y2="0%"><stop offset="20%" stop-color="#af4b6d" stop-opacity="1"></stop><stop offset="80%" stop-color="#7c3e6b" stop-opacity="1"></stop></linearGradient></defs><defs><linearGradient id="grad2_5" x1="0%" y1="100%" x2="66.7%" y2="0%"><stop offset="20%" stop-color="#49335c" stop-opacity="1"></stop><stop offset="80%" stop-color="#7c3e6b" stop-opacity="1"></stop></linearGradient></defs><defs><linearGradient id="grad2_6" x1="0%" y1="100%" x2="66.7%" y2="0%"><stop offset="20%" stop-color="#49335c" stop-opacity="1"></stop><stop offset="80%" stop-color="#1d2540" stop-opacity="1"></stop></linearGradient></defs><defs><linearGradient id="grad2_7" x1="0%" y1="100%" x2="66.7%" y2="0%"><stop offset="20%" stop-color="#001220" stop-opacity="1"></stop><stop offset="80%" stop-color="#1d2540" stop-opacity="1"></stop></linearGradient></defs><g transform="translate(900, 600)"><path d="M-486.7 0C-480.9 -63.4 -475 -126.8 -449.7 -186.3C-424.4 -245.7 -379.7 -301.1 -325.3 -325.3C-270.8 -349.4 -206.6 -342.3 -150.8 -364C-94.9 -385.7 -47.5 -436.2 0 -486.7L0 0Z" fill="#0c1c30"></path><path d="M-425.9 0C-420.8 -55.5 -415.6 -111 -393.5 -163C-371.4 -215 -332.3 -263.5 -284.6 -284.6C-237 -305.7 -180.8 -299.5 -131.9 -318.5C-83.1 -337.5 -41.5 -381.7 0 -425.9L0 0Z" fill="#312c4f"></path><path d="M-365.1 0C-360.7 -47.6 -356.2 -95.1 -337.3 -139.7C-318.3 -184.3 -284.8 -225.8 -244 -244C-203.1 -262.1 -155 -256.7 -113.1 -273C-71.2 -289.3 -35.6 -327.2 0 -365.1L0 0Z" fill="#623965"></path><path d="M-304.2 0C-300.5 -39.6 -296.9 -79.3 -281.1 -116.4C-265.3 -153.6 -237.3 -188.2 -203.3 -203.3C-169.3 -218.4 -129.1 -213.9 -94.2 -227.5C-59.3 -241.1 -29.7 -272.6 0 -304.2L0 0Z" fill="#96446e"></path><path d="M-243.4 0C-240.4 -31.7 -237.5 -63.4 -224.8 -93.1C-212.2 -122.8 -189.9 -150.6 -162.6 -162.6C-135.4 -174.7 -103.3 -171.2 -75.4 -182C-47.5 -192.9 -23.7 -218.1 0 -243.4L0 0Z" fill="#c55469"></path><path d="M-182.5 0C-180.3 -23.8 -178.1 -47.6 -168.6 -69.9C-159.2 -92.1 -142.4 -112.9 -122 -122C-101.6 -131 -77.5 -128.4 -56.5 -136.5C-35.6 -144.6 -17.8 -163.6 0 -182.5L0 0Z" fill="#e9705a"></path><path d="M-121.7 0C-120.2 -15.9 -118.7 -31.7 -112.4 -46.6C-106.1 -61.4 -94.9 -75.3 -81.3 -81.3C-67.7 -87.4 -51.7 -85.6 -37.7 -91C-23.7 -96.4 -11.9 -109.1 0 -121.7L0 0Z" fill="#fa9845"></path><path d="M-60.8 0C-60.1 -7.9 -59.4 -15.9 -56.2 -23.3C-53.1 -30.7 -47.5 -37.6 -40.7 -40.7C-33.9 -43.7 -25.8 -42.8 -18.8 -45.5C-11.9 -48.2 -5.9 -54.5 0 -60.8L0 0Z" fill="#fbae3c"></path></g><g transform="translate(0, 0)"><path d="M486.7 0C486.7 69.2 486.6 138.5 449.7 186.3C412.8 234 339.2 260.3 285 285C230.7 309.6 195.8 332.5 151.5 365.9C107.3 399.2 53.6 443 0 486.7L0 0Z" fill="#0c1c30"></path><path d="M425.9 0C425.8 60.6 425.7 121.2 393.5 163C361.2 204.8 296.8 227.8 249.3 249.3C201.9 270.9 171.3 290.9 132.6 320.1C93.9 349.3 46.9 387.6 0 425.9L0 0Z" fill="#312c4f"></path><path d="M365.1 0C365 51.9 364.9 103.9 337.3 139.7C309.6 175.5 254.4 195.3 213.7 213.7C173 232.2 146.9 249.4 113.7 274.4C80.5 299.4 40.2 332.2 0 365.1L0 0Z" fill="#623965"></path><path d="M304.2 0C304.2 43.3 304.1 86.6 281.1 116.4C258 146.3 212 162.7 178.1 178.1C144.2 193.5 122.4 207.8 94.7 228.7C67 249.5 33.5 276.9 0 304.2L0 0Z" fill="#96446e"></path><path d="M243.4 0C243.3 34.6 243.3 69.2 224.8 93.1C206.4 117 169.6 130.2 142.5 142.5C115.4 154.8 97.9 166.3 75.8 182.9C53.6 199.6 26.8 221.5 0 243.4L0 0Z" fill="#c55469"></path><path d="M182.5 0C182.5 26 182.5 51.9 168.6 69.9C154.8 87.8 127.2 97.6 106.9 106.9C86.5 116.1 73.4 124.7 56.8 137.2C40.2 149.7 20.1 166.1 0 182.5L0 0Z" fill="#e9705a"></path><path d="M121.7 0C121.7 17.3 121.6 34.6 112.4 46.6C103.2 58.5 84.8 65.1 71.2 71.2C57.7 77.4 49 83.1 37.9 91.5C26.8 99.8 13.4 110.7 0 121.7L0 0Z" fill="#fa9845"></path><path d="M60.8 0C60.8 8.7 60.8 17.3 56.2 23.3C51.6 29.3 42.4 32.5 35.6 35.6C28.8 38.7 24.5 41.6 18.9 45.7C13.4 49.9 6.7 55.4 0 60.8L0 0Z" fill="#fbae3c"></path></g></svg>