<svg xmlns="http://www.w3.org/2000/svg" version="1.1" xmlns:xlink="http://www.w3.org/1999/xlink" xmlns:svgjs="http://svgjs.dev/svgjs" viewBox="0 0 1422 800" opacity="0.42"><defs><linearGradient x1="50%" y1="0%" x2="50%" y2="100%" id="ssscribble-grad"><stop stop-color="hsl(265, 55%, 30%)" stop-opacity="1" offset="0%"></stop><stop stop-color="hsl(265, 55%, 60%)" stop-opacity="1" offset="100%"></stop></linearGradient></defs><g fill="none" stroke-width="1.25" stroke="url(#ssscribble-grad)" stroke-linecap="round"><path d="M1354.39 738.1C1184.69 767.82 1215.99 807.49 1424.55 853.98 1704.77 896.97 1911.31 939.6 1946.46 973.44 1796.96 992.71 1534.14 989.75 1277.79 955 1133.19 897.05 1156.07 805.31 1322.77 686.89 1665.28 525.26 1728.67 495.19 1407.51 735.05 1178.31 960.59 1024.76 1181.87 978.75 1330.6 1042.19 1352.03 1183.8 1234.83 1354.83 1013.44 1517.73 790.17 1624.54 659.57 1656.91 705.21 1613.86 923.83 1505.65 1228.45 1357.5 1469.4 1184.95 1513.06 1019.47 1333.56 878.47 1031.59 763.9 808.15 687.91 813.81 646.16 1069.89 633.89 1411.48 643.43 1609.62 664.24 1514.33 698.3 1198.63 730.81 901.65 755.56 869.31 790.37 1322.02 791.44 1276.96 754.54 864.8 724.82 997.79 680.45 1362.61 622.14 1632.95 563.83 1579.26 491.97 1249.45 408.52 921.99 327.72 855.28 240.16 1091.18 152.17 1428.79 77.45 1610.54 15.11 1496.87 -24.11 1178.26 -33.86 870.08 -8.1 775.59 57.67 932.83 149.87 1230.41 267.98 1467.68 394.72 1505.94 497.06 1326.64 561.04 1029.97 561.56 766.8 486.67 646.94 339.05 711.57 137.2 904.23 -72.78 1139.44 -251.48 1306.15 -350.01 1347.61 -339.09 1256.11 -218.64 1066.44 -20.38 842.1 183.43 627.98 327.41 479.39 348.79 410.64 227.74 418.66 -2.71 485.26 -263.89 580.43 -452.37 695.77 -494.61 796.78 -366.77 871.21 51.15 935.99 -520.15 830.58 -367.6 783.56 -83.2 753.85 165.32 729.69 253.84 708.08 142.21 682.68 -106.49 652.33 -365.29 609.14 -514.43 552.02 -481.71 470.81 -288.01 359.18 -17.02 230.85 214.09 77.06 317.14 -89.78 260.26 -236.46 77.82 -353.3 -148.9 -410.15 -338.54 -390.23 -416.06 -289.03 -360.68 -120.73 -191.19 57.79 36.5 203.26 255.73 252.27 417.25 168.32 482.61 -39.17 451.68 -313.33 339.51 -544.96 186.87 -646.73 35.07 -562.01 -127.69 -202.16 -68.75 -124.14 109.56 -581.26 258.69 -765.05 404.42 -694.84 534.76 -408.48 653.39 -111.62 746.9 -17.24 817.13 -215.71 871.49 -570.08 908.91 -820.23 935.77 -765.07 954.46 -449.12 970.47 -128.02 988.47 -80.11 1004.5 -356.25 1026.51 -724.11 1056.22 -857.21 1085.94 -632.24 1122.67 -255.02 1164.53 -57.51 1204.42 -203.52 1245.44 -557.95 1282.81 -817.67 1312.01 -773.93 1329.65 -462.8 1329.21 -130.3 1312.91 -18.17 1272.19 -196.9 1205.08 -516.7 1126.25 -751.04 1030.74 -732.54 930.41 -482.62 850.85 -154.14 798.26 54.19 792.39 41.53 845.62 -168.44 960.33 -439.97 1130.37 -623.53 1324.69 -634.12 1518.15 -466.46 1669.28 -204.25 1739.19 56.1 1710.95 214.14 1584.55 235.28 1400.42 129.1 1205.8 -47.92 1067.24 -227.66 1042.77 -369.35 1149.06 -426.77 1365.2 -398.82 1618.44 -296.27 1825.12 -147.07 1903.81 16.55 1822.58 186.48 1610.83 331.01 1356.61 442.9 1179.65 531.58 1161.09 589.6 1321.65 626.39 1591.9 648.61 1849.38 663.02 1966.94 677.92 1884.36 689.31 1638.88 708.38 1354.47 738.09Q1354.39 738.1 1354.39 738.1" opacity="0.64"></path><path d="M1292.89 433.76C1129.03 461.36 1137.06 470.02 1306.65 460.52 1563.08 451.19 1789.63 424.78 1891.88 384.65 1831.69 350.06 1634.48 311.12 1381.14 278.82 1163.22 270.56 1059.64 289.36 1096.87 349.12 1255.78 449.66 1470.71 595.38 1664.79 777.25 1780.53 959.76 1778.4 1125.29 1665.31 1235.01 1471.78 1257.42 1253.35 1182.69 1063.35 1019.91 936.5 825.08 897.25 650.7 939.85 568.85 1050.08 626.78 1192.69 819.75 1334.15 1092.02 1456.85 1332.93 1532.43 1448.28 1554.65 1376.56 1526.24 1153.74 1452.82 884.72 1349.53 717.99 1222.07 760.62 1090.18 1003.41 965.41 1322.85 844.25 1530.13 741.39 1501.42 657.77 1246.52 585.14 937.12 529.23 779.66 485.95 897.27 449.5 1216.9 419.78 1518.85 393.05 1579.93 368.17 1352.45 342.64 1003.23 315.04 803.3 287.44 915.65 258.43 1246.02 229.56 1535.37 202.54 1569.59 179.29 1324.57 163.69 984.32 154.93 784.59 159.71 857.62 182.28 1136.74 215.83 1433.48 269.67 1546.74 343.01 1412.29 419.95 1111.79 505.2 824.44 587.35 703 645.32 799.06 674.76 1043.84 660.63 1297.02 595.88 1437.42 479.23 1393.79 317.04 1196.27 136.1 923.85 -44.41 689.66 -190.8 569.42 -269.57 588.75 -264.76 723.63 -170.5 910.94 -13.09 1097.57 174.6 1217.45 339.39 1246.81 423.75 1186.22 399.14 1054.28 258.78 886.47 40.09 701.16 -197.32 536.89 -376.45 409.21 -433.91 315.53 -348.31 264.01 -145.95 244.27 91.8 250.9 275.83 271.19 325.37 293.45 212.47 324.12 -22.2 345.43 -284.08 352.41 -459.14 360.47 -469.95 351.41 -306.1 323.83 -42.72 296.23 198.85 250.75 313.53 188.94 255.22 128.21 55.51 53.94 -194.79 -28.77 -395.04 -103.07 -460.16 -174.5 -369.52 -231.2 -158.73 -261.54 91.46 -259.06 292.94 -213.22 383.91 -133.38 340.49 -15.75 190.15 124.23 -17.07 246.74 -206.31 334.71 -321.05 352.8 -333.9 280.93 -240.79 120 -71.87 -106.09 136.65 -332.9 333.05 -505.7 480.42 -561.24 560.52 -477.2 564.41 -277.48 505.56 -37.64 397.11 127.31 270.11 140.26 149.35 -28.83 8.68 -446.5 -26.17 -473.8 61.46 -61.1 149.51 53.18 245.77 -77.99 341.36 -390.27 441.94 -685 533.21 -771.27 612.23 -582.27 690.15 -252.67 754.9 -15.72 806.64 -55.3 857.55 -350.06 896.78 -683.25 924.38 -795.71 951.98 -595.87 967.3 -243.85 970.14 -10.84 972.16 -66.37 960.39 -360.16 934.52 -669.17 907.55 -776.2 867.4 -605.61 816.9 -280.65 771.37 -10.14 724.12 36.58 683.89 -150.43 665.16 -449.64 669.59 -669.97 707.53 -688.02 781.6 -496.7 894.67 -200.93 1043.33 50.63 1206.61 151.1 1374.7 66.49 1522.65 -141.81 1621 -381.5 1655.02 -540.04 1611.11 -561.8 1499.93 -443.79 1337.98 -231.52 1162.03 2.78 1025.68 205.06 963.28 320.87 1004.84 340.99 1148.29 273.81 1364.26 152.27 1596.12 15.07 1771.09 -121.48 1837.03 -220.56 1766.32 -273.27 1585.09 -285.21 1352.86 -255 1157.62 -196.67 1082.52 -114.3 1160.77 -24.23 1371.65 62.39 1632.61 154.57 1840.46 233.94 1904.28 297.02 1795.11 360.28 1556.37 406.16 1292.97 433.75Q1292.89 433.76 1292.89 433.76" opacity="0.93"></path><path d="M1231.39 30.75C1074.46 56.22 1062.26 88.35 1193.67 128.66 1418.77 171.41 1648.46 226.8 1799.42 298.36 1822.51 376.62 1709.74 474.43 1503.71 591.42 1269.15 710.02 1081.68 837.69 992.89 961.98 1022.28 1059.89 1152.71 1125.97 1337.83 1141.93 1528.85 1102.6 1667.34 1004.93 1720.76 859.05 1680.27 704.25 1556.52 564.69 1381.48 484.03 1185.84 498.22 1011.44 615.29 884.89 821.31 818.08 1057.67 816.39 1264.1 868.13 1368.26 963.5 1329.72 1077.42 1157.86 1189.81 914.89 1294.99 712.02 1372.4 637.57 1417.49 743.65 1434.17 992.18 1419.53 1278.51 1380.8 1463.45 1321.31 1450.01 1249.68 1242.12 1173.74 948.78 1089.97 743.55 1010.36 747.63 938.87 973.38 866.19 1290.04 804.29 1508.95 754.32 1487.43 704.48 1237.78 666.56 917.58 641.09 741.8 615.62 834.93 603.18 1128.46 603.41 1422.9 603.76 1530.88 616.77 1383.57 641.41 1080.15 664.85 802.77 697.27 715.06 734.83 854.32 777.74 1262.11 786.65 1232.98 713.95 825.65 627.02 653.3 509.01 656.06 364.57 812.8 212.92 1051.81 61.08 1261.56 -70.73 1361.64 -158.92 1321.39 -192.2 1157.25 -158.78 930.66 -65.63 701.42 76.97 537.87 242.54 469.43 387.49 499.44 482.88 605.77 496.84 748.96 416.89 904.4 253.73 1028.43 39.98 1103.1 -167.86 1127.99 -319.04 1099.13 -367.11 1030.86 -296.99 929.57 -126.1 814.99 94.08 701.3 285.73 582.94 386.33 479.12 353.41 392.91 192.62 310.88 -44.55 245.97 -274.7 196.15 -411.15 148.3 -401.53 112.14 -244.6 86.66 -2.36 61.19 229.19 47 363.4 45.23 353.6 45.42 208.62 61.43 -12.58 95.42 -233.59 133.57 -372.63 190.2 -385.94 262.34 -271.98 329.81 -69.04 399.15 157.98 456.31 347.32 480.45 445.74 466.28 435.71 399.59 325.85 283.11 155.54 118.48 -25.05 -76.2 -176.36 -258.67 -256.74 -402.93 -253.04 -469.42 -168.85 -437.47 -23.84 -308.92 150.96 -113.08 332.32 80.12 486.84 212.5 597.16 222.71 657.8 92.59 665.81 -145.5 631.52 -411.05 560.95 -594.34 473.27 -621.83 383.26 -472.24 291.32 -218.45 215.74 22.4 160.94 119.96 120.39 10.6 102.09 -260.17 102.39 -555.25 115.22 -708.93 140.16 -633.46 171.99 -365.95 209.71 -72.34 248.43 67.54 284.64 -45.39 322.23 -344.83 354.48 -640.97 379.95 -734.21 405.43 -558.52 423.53 -235.74 435.56 18.99 448.97 45.65 459.14 -165.7 469.46 -472.54 485.67 -688.51 507.91 -680.49 541.3 -460.91 587.21 -153.2 650.74 71.3 735.43 103.46 834.37 -62.77 952.99 -328.33 1086.76 -554.16 1218.6 -637.55 1346.89 -538.44 1456.74 -309.05 1530.3 -39.55 1560.22 160.67 1536.05 229.31 1462.19 155.25 1342.67 -19.38 1194.69 -222.35 1053.27 -394.99 940.04 -477.09 885.91 -454.84 912.27 -337.73 1020.99 -160.26 1198.81 33.8 1405.94 218.94 1600.94 357.23 1733.55 438.38 1766.32 464.25 1688.69 441.22 1518.04 387.46 1309.68 307.31 1123.32 224.89 1023.7 152.51 1051.36 81.73 1202.52 31.11 1433.35 0.89 1664.4 -22.61 1816.91 -29.11 1831.8 -22.25 1702.67 -12.94 1473.72 5.26 1231.47 30.74Q1231.39 30.75 1231.39 30.75" opacity="0.84"></path><path d="M1169.89 706.73C1020.93 730.08 991.75 763.04 1086.9 803.64 1275.53 842.27 1493.25 884.44 1672.16 924.99 1762.91 956.78 1737.67 978.09 1608.2 981.25 1409.92 966.15 1198.51 924.65 1027.28 853.55 932.96 767.07 934.54 660.64 1022.25 547.04 1173.87 454.37 1346.46 390.66 1499.92 378.26 1608.01 430.66 1645.52 550 1610.44 727.49 1510.48 926.32 1365.85 1116.23 1202.23 1250.51 1036.76 1290.03 895.86 1221.96 792.5 1057.21 730.16 851.6 712.22 664.28 731.2 567.39 782.99 607.92 853.23 782.16 930.05 1038.3 1013.83 1277.3 1088.36 1409.33 1148.55 1372.58 1200.8 1182.89 1235.09 919.7 1252.88 707.29 1261.45 656.9 1257.18 799.26 1243.71 1074.64 1225.22 1343.9 1202.09 1469.97 1177.21 1379.47 1151 1121.13 1125.64 833.03 1102.29 680.3 1078.94 755.74 1058.15 1011.08 1038.87 1297.8 1018.27 1461.41 996.58 1412.16 971.03 1183.15 940.47 892.14 901.47 687.69 850.54 662.17 790.38 820.24 714.61 1076.24 621.9 1306.22 521.24 1412.32 407.25 1346.91 285.12 1145 169.97 883.84 62.5 666.2 -25.27 562.82 -80.23 598.44 -97.06 748.24 -68.13 949.51 1.82 1142.48 110.64 1260.39 245.52 1276.38 378.53 1191.04 494.01 1030.16 566.4 836.73 573.9 641.96 510.39 488.74 377.99 394.79 200.22 362.95 5 389.38 -167.44 455.7 -275.98 553.85 -296.59 657.28 -219.39 750.43 -65.27 836.54 130.93 897.39 316.02 932.88 432.32 952.42 446.41 951.34 346.65 936.05 158.73 911.77 -65.85 881.61 -259.1 850.78 -358.87 817.68 -332.06 788.45 -183.1 765.1 37.92 741.75 256.71 724.83 403.75 712.43 435.7 697.78 346.55 683.13 169.61 663.38 -43.18 634.63 -223.82 592.46 -321.82 530.56 -313.87 452.72 -202.51 350.41 -21.05 223.84 187.64 90.23 370.64 -52.66 489.41 -189.16 524.06 -293.84 473.13 -357.52 357.06 -361.7 199.79 -303.76 41.67 -185.31 -85.99 -23.96 -166.4 136.06 -182.66 264.89 -137.61 319.66 -39.03 273.09 95.12 126.07 244.27 -94.45 397.71 -323.3 533.48 -499.13 641.67 -559.11 721.55 -480.07 767.29 -285.09 783.49 -44.75 773.07 136.34 744.15 182.78 705.29 59.61 654.69 -187.46 605.24 -458.67 562.11 -629.97 517.56 -617.68 483.77 -424.43 461.93 -142.44 441.52 77.59 432.87 120.03 435.49 -48.11 438.8 -339.42 452.2 -597.18 475.55 -672.71 498.9 -520.06 531.64 -229.61 573.81 33.39 616.68 128.58 670.14 9.44 734.59 -250.77 800.46 -517.17 877.5 -648.43 964.42 -584.91 1049.92 -359.35 1140.84 -80.95 1231.92 125.87 1311.25 179.78 1379.63 66.8 1428.41 -151.35 1450.57 -386.67 1442.06 -538.3 1398.19 -554.53 1325.99 -433.35 1224.99 -220.03 1104.96 13.14 989.22 205.48 887.11 302.7 819.12 293.79 804.66 190.13 850.04 32.29 958.01 -133.13 1113.24 -277.21 1297.36 -361.8 1478.95 -378.21 1619.35 -329.82 1692.94 -228.89 1679.13 -97.88 1581.22 54.05 1417.25 199.94 1225.68 326.89 1061.31 438.46 965.14 521.43 970.33 578.9 1081.48 618.11 1273.25 640.06 1495.06 652.3 1681.03 655.79 1777.08 658.44 1749.8 665.3 1607.42 670.18 1391.02 683.37 1169.97 706.72Q1169.89 706.73 1169.89 706.73" opacity="0.31"></path><path d="M1108.39 486.39C968.44 507.62 925.63 514.54 987.45 507.53 1136.89 500.29 1330.3 479.04 1516.47 444.94 1652.86 412.32 1703.9 370.34 1661.12 323.98 1535.87 287.91 1358.33 258.54 1168.42 245.66 1001.21 259.11 890.65 302.81 852.26 383.57 888.53 494.91 986.05 637.63 1120.72 800.39 1271.93 955.56 1407.39 1090.37 1506.28 1178.87 1559.5 1200.68 1557.63 1148.68 1505.8 1025.41 1410.88 861.89 1287.91 686.94 1152.89 547.05 1012.94 489.31 885.89 533.89 779.85 682.74 694.68 897.49 637.07 1124.87 604.5 1294.69 594.22 1348.38 601.97 1266.33 621.33 1070.86 653.1 837.43 687.7 649.6 720.26 587.83 756.7 685.1 786.29 909.42 806.92 1173.93 827.84 1364.9 838.61 1400.22 838.74 1258.09 838.68 1003.56 828.18 749.7 806.95 618.8 785.72 678.14 754.27 894.96 712.98 1162.85 671.5 1361.81 619.98 1399.8 559.03 1265.93 498.37 1019.07 429.45 766.24 354.49 608.3 283.42 601.26 211.12 740.21 142.56 961.69 86.41 1184.97 42.78 1322.85 18.21 1332.08 15.92 1212.92 39.7 1007.18 92.15 781.03 165.46 592.28 260.92 492.9 370.5 496.86 475.14 595.57 568.96 752.46 636.06 922.36 660.07 1073.79 635.44 1167.43 557.15 1191.04 433.19 1145.87 274.1 1043.29 100.78 906.16 -55.98 747.26 -174.07 594.88 -229.27 464.33 -209.82 356.37 -116.56 283.12 35.08 241.32 209.43 226.14 373.15 232.34 486.42 250.67 517.22 282.2 456.04 314.34 311.46 341.04 117.09 371.15 -82.56 390.71 -236.19 397.47 -302.21 404.55 -261.55 397.87 -121.6 376.65 78.2 355.42 281.76 320.16 435.06 271.73 500.61 223.63 464.19 163.33 340.31 93.19 159.57 26.45 -28.41 -45.01 -178.25 -115.06 -259.45 -171.91 -252.25 -215.82 -162.37 -237.45 -8.76 -232.45 174.56 -195.09 351.45 -122 494.49 -26.31 578.33 92.21 595.45 218.4 547.52 322.82 449.67 393.83 323.76 408.65 185.4 354.7 62.09 231.93 -30.05 52.69 -85.53 -145.03 -95.31 -328.43 -63.12 -452.23 6.33 -481.29 102.77 -405.58 214.14 -238.95 337.13 -34.91 456.61 150.27 565.33 250.53 665.83 222.4 748.53 67.26 813.5 -171.56 865.58 -408.61 902.5 -561.42 927.94 -566.42 944.44 -420.5 954.81 -177.83 962.77 60.85 966.79 186.58 972.41 142.41 981.99 -60.68 990.64 -332.77 1005.12 -551.78 1026.34 -611.21 1047.57 -480.38 1075.05 -224.4 1107.74 34.35 1139.51 180.74 1174.63 151.74 1210.65 -30.99 1257.2 -394.41 1307.18 -412.33 1292.3 -62.53 1264.13 148.52 1217.31 247.9 1151.67 213.16 1077.81 62.29 992.16 -144.51 901.9 -337.16 823.23 -463.92 758.39 -484.88 719.28 -402.09 717.46 -237.13 756.36 -35.69 839.66 155.65 959.62 306.76 1109.42 387.91 1272.84 396.48 1423.83 338.35 1545.33 235.14 1615.38 112.69 1620.38 -17.34 1557.13 -126.23 1433.05 -202.71 1275.1 -248.62 1109.06 -256.44 971 -233.1 896.66 -183.43 903.25 -116.37 996.41 -41.78 1158.2 43.09 1356.33 124.39 1545.27 197.05 1677.36 271.18 1720.07 333.18 1658.76 381.76 1509.69 430.12 1308.29 465.15 1108.47 486.38Q1108.39 486.39 1108.39 486.39" opacity="0.47"></path><path d="M1046.89 13.59C916.96 32.7 863.95 55.12 896.27 81.77 1006.23 109.92 1166.49 145.11 1341.44 189.83 1498.8 239.41 1604.18 302.17 1639.51 379.95 1600.93 463.67 1496.46 561.83 1347.54 671.51 1177.25 778.15 1016 884.94 887.44 981.48 805.98 1052.56 781.52 1094 811.15 1094.86 888.86 1053.74 997.52 968.76 1119.02 846.26 1242.73 710.59 1347.94 574.66 1424.2 465.29 1469.19 411.9 1476.61 426.99 1449.9 519.25 1392.64 674.31 1312.37 869.53 1218.15 1065.33 1111.76 1212.42 1005.24 1277.98 904.71 1239.15 807.35 1106.14 722.5 909.93 651.19 706.24 588.29 563.03 538.37 524.53 499.37 612.31 467.19 802.76 442.47 1039.69 422.55 1244.37 406.02 1343.33 391.1 1300.36 375.89 1125.92 361.55 886.19 345.19 667.7 326.09 557.3 306.98 602.23 285.58 781.18 262.71 1021.29 240.71 1235.07 218.96 1340.71 199.45 1304.38 183.34 1141.33 172.67 910.69 170.18 691.01 174.52 548.45 190.51 525.66 220.3 620.16 258.5 800.69 311.06 1005.55 377.05 1174.28 446.21 1266.16 522.27 1255.26 599.22 1150.89 664 977.6 715.82 779.92 745.75 600.49 745.13 467.29 711.47 405.04 641.44 414.5 540.13 488.66 411.08 604.72 264.81 736.75 120.74 870.93 -9.18 979.49 -106.77 1051.1 -156.3 1085.49 -150.36 1077.77 -85.94 1035.71 25.57 963.84 171.25 874.1 327.53 777.34 462.45 671.79 554.48 572.31 582.28 483.66 536.17 397.62 421.66 325.46 256.93 266.82 74.61 211.86 -91.26 168.19 -205 134.05 -241.1 101.19 -190.03 75.53 -60.1 56.42 118.52 37.31 304.75 25.21 458.1 20.86 548.17 17.78 557.68 24.78 488.93 43.69 356.32 66.3 191.09 103.06 27.34 154.43 -107.75 208.41 -186.28 273.96 -197.06 346.4 -140.63 410.06 -27.82 467.52 120.43 508.03 284.45 518.74 437.39 496.02 559.86 432.2 641.09 331.17 672.41 194.18 656.43 32.67 597.37 -126.7 508.78 -269.01 405.14 -368.23 293.19 -402.76 191.1 -364.38 108.15 -253.77 45 -96.91 10.41 79.5 3.39 232.91 20.86 317.42 60.52 309.84 116.23 200.94 186.9 15.2 264.26 -205.22 342.87 -399.78 426.15 -508.32 504.65 -498.02 575.85 -366.28 646.52 -157.39 708.21 64.12 760.61 219.83 811.63 248.84 854.05 137.64 888.25 -79.88 921.92 -323.76 948.31 -504.7 967.42 -549.71 986.52 -439.38 997.9 -218.98 1001.44 24.54 1004.46 202.81 998.72 251.46 983.73 159.92 967.37 -37.36 941.07 -265.17 905.07 -444.86 868.54 -521.9 823.97 -471 773.8 -313.81 728.3 -96.11 683.22 115.67 643.92 265.74 619.57 321.64 610.35 274.6 622.32 147.42 658.77 -28.47 721.79 -202.43 812.26 -334.94 922.55 -404.64 1050.86 -395.9 1187.86 -317.48 1316.55 -183.07 1428.99 -20.9 1510.63 142.09 1549.19 291.94 1539.15 405.36 1477.83 475.93 1375.27 504.51 1240.85 493.53 1093.87 453.82 962.65 388.65 865.39 314.15 822.94 240.62 847.7 164.05 938.65 99.82 1084.52 50.76 1259.04 7.64 1433.4 -19.71 1573.4 -33.26 1649.55 -41.96 1645.7 -40.48 1559.44 -31.41 1409.9 -20.85 1225.62 -5.51 1046.97 13.58Q1046.89 13.59 1046.89 13.59" opacity="0.30"></path><path d="M985.39 669.92C807.28 703.88 889.17 769.06 1158.04 850.78 1448.14 915.77 1575.33 961.69 1482.64 950.15 1225.27 877.74 939.75 724.22 750.82 519.3 713.98 366.96 820.83 327.25 998.25 478.48 1193.98 771.34 1327.48 1081.57 1376.34 1205.22 1350.17 1045.17 1261.65 703.22 1147.04 464.65 1008.93 571.09 884.06 955.54 786.58 1263.94 689.73 1176.83 623.37 773.57 589.41 495.8 555.44 673.91 555.48 1090.34 588.27 1281.87 621.69 1059.31 684.78 655.95 764.02 453.61 819.77 606.1 852.35 945.75 826.18 1177.42 724.97 1145.24 542.7 880.29 302.46 569.24 80.51 352.1 -66.59 319.75 -65.12 424.79 88.44 614.3 343.5 784.43 575.97 888.29 643.76 941.78 497.24 931.18 194.03 889.44 -87.93 829.15 -176.71 774.13 1.39 740.17 327.2 706.19 579.46 694.88 607.03 691.12 404.9 668.81 113.64 617.65 -93.39 505.31 -118.81 342.61 47.83 116.55 310.47 -125.31 570.03 -282.73 724.33 -299.18 748.79 -126.6 656.88 139.92 505.9 364.63 356.72 361.5 222.77 94.51 148.76 -275.6 130.7 -453.05 150 -275.67 199.53 108.33 256.89 317.86 323.76 113.32 378.73 -309.98 412.7 -488.21 446.67 -210.53 458.03 199.64 455.22 299.96 461.91 4.72 474.16 -360.42 513.71 -442.03 590.62 -178.59 720.55 193.82 906.84 389.26 1108.36 301 1308.13 31.05 1444.58 -217.3 1464.66 -324.02 1350.65 -235.55 1126.47 -30.86 899.19 226.4 762.97 435.85 813.25 567.13 1045.16 637.53 1355.75 653.4 1571.02 652.46 1556.61 634.8 1311.29 635.94 985.47 669.91Q985.39 669.92 985.39 669.92" opacity="0.34"></path><path d="M923.89 537.49C754.19 567.21 782.36 557.88 977.93 510.47 1246.44 462.2 1450.53 380.99 1507.12 287.15 1403.79 229.87 1187.52 217.82 946.19 295.39 743.71 462.8 639.71 709.48 637.17 965.33 722.54 1115.01 851.8 1092.49 981.59 877.91 1106.96 596.21 1189.81 403.5 1228.89 457.67 1242.15 746.67 1225.7 1088.16 1194.71 1219.26 1155.57 1027.99 1117.53 659.35 1087.81 434.3 1058.09 567.29 1038.1 926.07 1021.19 1192.07 996.13 1157.74 958.52 856.7 893.75 528.36 803.17 385.87 671.37 505.03 500.2 769.45 324.61 1026.94 152.68 1123.03 28.35 1038.07 -8.05 817.35 60.7 564.68 232.24 363.49 442.62 234.42 632.24 198.1 713.79 220.01 635.41 287.24 414.4 356.1 134.43 400.73 -72.6 448.49 -106.8 459.6 62.89 429.88 347.29 400.17 595.13 331.05 689.13 227.24 594.74 126.58 371.65 3.65 132.31 -115.08 -34.15 -188.52 -56.52 -201.17 55.88 -117.93 263.38 37.42 491.81 247.42 679.75 429.22 804.19 475.27 845.05 343.98 822.26 55.57 747.46 -239.8 656.96 -385.66 576.73 -265.02 494.04 41.5 440.29 325.67 417.28 348.61 398.51 71.2 404.98 -293.61 434.69 -426.71 464.41 -201.74 515.97 172.93 590.77 375.74 669.83 256.18 777.64 -68.38 911.82 -335.63 1043.56 -368.06 1183 -148.72 1303.62 163.93 1372.24 409.47 1374.08 467.25 1288.6 356.53 1139.63 139.63 946.44 -64.38 769.87 -185.99 688.38 -217.76 737.37 -156.76 925.6 -47.98 1186.71 97.35 1426.74 232.62 1532.64 336.95 1450.16 440.41 1208.38 507.76 923.97 537.48Q923.89 537.49 923.89 537.49" opacity="0.11"></path><path d="M862.39 3.28C705.46 28.76 691.17 59.49 812.6 102.63 1024.98 155.72 1242.4 238.23 1392.75 360.38 1441.65 500.13 1375.4 672.45 1226.12 850.98 1027.47 982.47 833.68 1044.01 680.81 993.44 577.9 842.53 537.24 619.31 544.48 408.4 592.33 320.44 656.51 405.5 717.65 655.31 786.21 948.93 835.42 1141.44 860.13 1107.69 883.71 863.6 883.14 548.58 857.67 372.8 832.19 465.94 783.02 754.17 711.39 1039.98 638.64 1156.58 543.1 1035.83 430.38 765.03 325.1 481.28 218.97 327.09 131.86 346.83 85.36 514.94 89.45 736.99 158.96 920.27 278.45 1025.29 442.04 1018.39 614.16 927.96 736.91 775.68 780.32 610.16 712.75 464.23 543.72 325.93 311.8 224.95 89.6 156.97 -41.66 97.49 -32.53 57.74 124.39 32.26 366.64 6.79 597.16 -3.19 733.15 8.24 734.88 28.18 612.49 82.81 421.24 176.97 215.08 278.75 66.32 402.31 8.37 515.33 44.06 566.5 159.95 536.84 318.45 398.44 499.55 181.78 662.48 -70.46 789.14 -265.11 884.82 -311.4 940.01 -180.08 966.35 84.97 971.06 337.11 966.38 443.41 964.85 317.04 958.37 21.43 965.4 -271.97 990.87 -365.21 1016.34 -189.51 1059.05 130.66 1113.57 384.64 1163.13 428.28 1214.16 250.31 1253.61 -24.64 1271.43 -255.8 1258.2 -318.05 1201.8 -203.57 1114.41 33.84 988.06 287.27 840.35 471.58 715.22 555.54 629.51 530.58 620.33 438.36 704.78 299.08 876.36 168.72 1101.19 73.11 1311.12 -4.88 1448.04 -41.05 1456.18 -46.1 1330.06 -41.19 1104.73 -22.19 862.47 3.27Q862.39 3.28 862.39 3.28" opacity="0.14"></path><path d="M800.89 628.33C660.95 649.56 616.91 693.22 672.01 753.27 810.55 807.89 988.52 867 1159.57 914.72 1296.3 936.02 1364.78 920.97 1360.81 854.21 1291.71 749.57 1174.74 601.74 1035.95 436.92 884.29 310.24 747.1 247.35 635.6 288.83 542.85 436.51 479.1 664.16 438.3 904.1 412.29 1063.61 397.48 1082.59 385.65 937.85 377.88 691.62 365.17 442.19 343.95 311.3 322.72 370.64 293.98 583.19 261.71 841 233.5 1038.86 209.7 1089.23 198.91 986.63 202.93 773.54 231.72 534.46 291.75 346.56 370.53 248.12 477.24 257.39 601.08 346.49 712.04 492.8 803.85 643.72 850.84 766.3 832.71 862.79 745.19 909.89 592.91 916.89 406.29 897.32 216.23 858.76 69.5 816.96 6.21 768.55 45.95 730.44 185.89 709.21 385.7 687.98 588.1 684.64 740.62 693.02 811.99 694.79 790.38 694.72 692.75 677.5 540.05 633.72 376.34 551.66 236.34 422.45 132.58 267.15 87.58 85.76 97.95 -88.37 155.69 -205.29 247.11 -239.73 353.01 -163.39 473.02 2.39 585.1 222.43 680.54 419.97 772.61 507 845.03 444.55 898.33 238.49 949.02 -27.5 984.69 -244.35 1005.92 -303.69 1027.16 -172.8 1032.94 80.92 1022.29 335.34 1009.04 488.27 975.24 481.37 919.96 337.43 861.31 113.05 784.2 -95.55 696.9 -221.13 623.72 -240.51 562.76 -152.45 532.83 2.05 550.26 194.69 620.41 373 746.27 510.36 908.36 609.83 1091.11 659.84 1259.38 675.33 1372.59 664.4 1406.31 643.9 1343.16 629.32 1198.87 609.31 1000.79 607.09 800.97 628.32Q800.89 628.33 800.89 628.33" opacity="0.57"></path><path d="M739.39 586.15C561.28 620.12 634.73 567.07 868.99 431.89 1138.79 307.55 1283.64 182.5 1276.03 197.77 1150.41 410.8 974.27 770.54 823.25 1019.6 670.65 919.86 573.85 527.57 539.88 249.8 505.91 427.92 538 831.59 631.74 1025.12 723.9 864.95 847.03 514.39 928.13 249.06 891.22 154.52 710.34 224.32 415.65 326.68 156.49 457.73 69.28 516.55 247.39 482.58 573.22 448.61 825.21 325.08 872.1 135.17 718.35 -26.04 484.61 -148.86 300.75 -98.83 188.19 121.97 186.73 436.5 243.64 571.79 336.25 353.36 416.78 -64.07 450.74 -242.19 484.73 35.56 468.92 441.62 435.17 566.26 437.11 342.1 491.55 18.37 648.61 -150.13 876.97 -120.88 1146.75 57.17 1325.42 240.37 1303.48 434.41 1065.29 552.18 739.47 586.14Q739.39 586.15 739.39 586.15" opacity="0.79"></path><path d="M677.89 0C520.96 25.47 502.56 55.32 602.24 116.73 784.67 212.25 967.82 383.85 1097.64 619.97 1183.47 829.08 1201.98 957.49 1180.26 897.91 1137 668.68 1092.12 364.06 1066.65 188.3 1041.18 281.44 1037.51 559.05 1036.63 823.08 1014.2 956.17 955.94 895.73 836.72 722.82 673.51 491.86 463.34 300.33 262.24 180.37 143.89 88.4 151.96 40.09 308.89 14.62 551.14 -10.85 779.54 -11.07 916.66 36.74 942.26 112.55 870.24 264.33 756.41 461.9 612.39 601.42 498.96 634.84 435.85 483.08 383.77 200.38 373.26 -87.55 398.74 -180.69 424.2 -4.93 483.23 310 579.45 557.9 686.69 636.15 839.87 534.77 1017.28 359.05 1164.52 156.31 1263.58 24.47 1256.68 -26.9 1138.26 -44.16 920.22 -25.47 677.97 0Q677.89 0 677.89 0" opacity="0.59"></path><path d="M616.39 582.69C438.28 616.66 495.21 786.13 645.14 884.79 841.19 774.31 939.75 404.57 905.79 126.8 871.82 304.95 711.76 682.67 471.19 858.38 276.74 838.85 192.28 706.75 370.39 672.78 696.24 638.81 947.28 709.42 1023.86 684.42 979.79 464.2 916.49 58.95 950.46 -119.19 984.42 158.57 1109.23 555.84 1197.81 710.84 1165.76 656.7 942.29 548.72 616.47 582.68Q616.39 582.69 616.39 582.69" opacity="0.77"></path></g></svg>